<?xml version="1.0" encoding="UTF-8"?>
<svg xmlns="http://www.w3.org/2000/svg" xmlns:xlink="http://www.w3.org/1999/xlink" width="40px" height="40px" viewBox="0 0 40 40" version="1.1">
<g id="surface1">
<path style=" stroke:none;fill-rule:nonzero;fill:rgb(0%,0%,0%);fill-opacity:1;" d="M 20 0 C 8.953125 0 0 8.953125 0 20 C 0 31.046875 8.953125 40 20 40 C 31.046875 40 40 31.046875 40 20 C 40 8.953125 31.046875 0 20 0 Z M 16.667969 26.667969 L 13.332031 26.667969 L 13.332031 16.667969 L 16.667969 16.667969 Z M 15 15.183594 C 13.988281 15.183594 13.167969 14.355469 13.167969 13.332031 C 13.167969 12.3125 13.988281 11.484375 15 11.484375 C 16.011719 11.484375 16.832031 12.3125 16.832031 13.332031 C 16.832031 14.355469 16.011719 15.183594 15 15.183594 Z M 28.332031 26.667969 L 25.003906 26.667969 L 25.003906 21.898438 C 25.003906 18.761719 21.667969 19.027344 21.667969 21.898438 L 21.667969 26.667969 L 18.332031 26.667969 L 18.332031 16.667969 L 21.667969 16.667969 L 21.667969 18.488281 C 23.121094 15.796875 28.332031 15.59375 28.332031 21.066406 Z M 28.332031 26.667969 "/>
</g>
</svg>
