<?xml version="1.0" encoding="UTF-8"?>
<svg xmlns="http://www.w3.org/2000/svg" xmlns:xlink="http://www.w3.org/1999/xlink" width="40px" height="40px" viewBox="0 0 40 40" version="1.1">
<g id="surface1">
<path style=" stroke:none;fill-rule:nonzero;fill:rgb(0%,0%,0%);fill-opacity:1;" d="M 20 0 C 8.953125 0 0 8.953125 0 20 C 0 31.046875 8.953125 40 20 40 C 31.046875 40 40 31.046875 40 20 C 40 8.953125 31.046875 0 20 0 Z M 25 13.332031 L 22.75 13.332031 C 21.851562 13.332031 21.667969 13.703125 21.667969 14.628906 L 21.667969 16.667969 L 25 16.667969 L 24.652344 20 L 21.667969 20 L 21.667969 31.667969 L 16.667969 31.667969 L 16.667969 20 L 13.332031 20 L 13.332031 16.667969 L 16.667969 16.667969 L 16.667969 12.820312 C 16.667969 9.871094 18.21875 8.332031 21.714844 8.332031 L 25 8.332031 Z M 25 13.332031 "/>
</g>
</svg>
