<?xml version="1.0" encoding="UTF-8"?>
<svg id="Lager_1" xmlns="http://www.w3.org/2000/svg" width="33.4" height="40.1" version="1.1" viewBox="0 0 33.4 40.1">
  <!-- Generator: Adobe Illustrator 29.0.1, SVG Export Plug-In . SVG Version: 2.1.0 Build 192)  -->
  <defs>
    <style>
      .st0 {
        fill: #ffe610;
      }

      .st1 {
        fill: none;
      }
    </style>
  </defs>
  <g>
    <path class="st1" d="M9.8,15.5h13.9c.1-1.3.3-2.6.6-3.9.1-.7.3-1.3.5-2-.6.1-1.1.4-1.6.7.2.3.2.7.2,1.1v.4c-.2,1.2-1.1,2.1-2.3,2.2-.3,0-.5,0-.8-.1-1-.2-1.8-1.1-2-2.1v-.4c0-.9.4-1.7,1.1-2.2-.7-.7-1.6-1.2-2.7-1.2s-2,.5-2.6,1.3c.7.5,1.1,1.3,1.1,2.2v.4c-.2,1-.9,1.9-2,2.1-.3.1-.5.1-.8.1-1.2-.1-2.2-1-2.3-2.2v-.4c0-.4.1-.8.3-1.1-.5-.4-1-.6-1.6-.7.2.7.3,1.3.5,2,0,1.2.3,2.5.5,3.8Z"/>
    <path class="st0" d="M13.6,29.9h0c1.1.7,2,1,3.1,1s2-.3,3.1-1h0l-3.1-.7-3.1.7Z"/>
    <path class="st0" d="M27,17.4c-.2-.9-.9-1.6-1.7-1.7.1-1.3.3-2.5.5-3.7.2-1,.4-2,.7-2.9v-.2c.1,0-1.1-.9-1.1-.9-1.2,0-2.4.4-3.4,1.2l-.5,1.6h0c.2.2.3.4.3.7v.2c-.1.5-.4.8-.9.8h-.3c-.4-.1-.7-.4-.7-.8v-.2c0-.5.3-.8.7-1l.4-1.5c-.7-1.3-2-2.3-3.5-2.5l-.2-1.3h-1.2l-.2,1.3c-1.5.2-2.8,1.2-3.5,2.5l.5,1.5c.4.1.7.5.7,1v.2c-.1.4-.4.7-.8.8h-.3c-.5,0-.8-.4-.9-.8v-.2c0-.3.1-.5.3-.7h0l-.5-1.6c-1-.8-2.2-1.2-3.4-1.2l-1.2.8v.2c.4,1,.6,2,.8,2.9.2,1.2.4,2.5.5,3.7-.8.1-1.5.8-1.7,1.7,0,.6,0,1.3.4,1.8s.9.7,1.5.7h1c.1,2.8-.5,7-.5,7l.5.2c.9.4,1.6.8,2.2,1.3.2.2.5.4.7.6l3.9-.7-.2-1.1c-1.7-.4-2.9-1.8-2.9-1.8l.9-5.2s-.4.3-1.1.1c-.8-.1-2.6-2.3-2.6-2.3v-.5c3.5,0,4.6.9,4.6,2.2v4.9c-.1,0,.8.8,1.9.8s2-.8,2-.8v-4.9c-.1-1.3.9-2.2,4.5-2.2v.5s-1.7,2.2-2.6,2.3c-.8.1-1.1-.1-1.1-.1l.9,5.2s-1.3,1.4-2.9,1.8l-.2,1.1,3.9.7c.2-.2.5-.4.7-.6.7-.6,1.3-1,2.3-1.3l.5-.2s-.6-4.2-.5-7h.8c0,.1.2.1.2.1.6,0,1.1-.2,1.5-.7.3-.5.4-1.2.3-1.8ZM10.3,10.4c-.2.3-.3.7-.3,1.1v.4c.2,1.2,1.1,2.1,2.3,2.2.3,0,.5,0,.8-.1,1-.2,1.8-1.1,2-2.1v-.4c0-.9-.4-1.7-1.1-2.2.7-.8,1.7-1.3,2.7-1.3s2,.5,2.6,1.3c-.7.5-1.1,1.3-1.1,2.2v.4c.2,1,.9,1.9,2,2.1.3.1.5.1.8.1,1.2-.1,2.2-1,2.3-2.2v-.4c0-.4-.1-.8-.2-1.1.5-.4,1-.6,1.6-.7-.2.7-.3,1.3-.5,2-.3,1.3-.5,2.6-.6,3.9h-13.8c-.1-1.3-.3-2.6-.6-3.9-.1-.7-.3-1.3-.5-2,.6,0,1.1.3,1.6.7Z"/>
  </g>
  <path class="st0" d="M26.7,0v2.2h4.5v22.5c.2,3.9-1.3,7.3-4.1,9.7-2.7,2.3-6.4,3.6-10.4,3.6s-7.7-1.3-10.4-3.6c-2.8-2.4-4.3-5.8-4.1-9.7V2.2h4.5V0H0v24.9c0,8.8,7,15.2,16.7,15.2s16.7-6.4,16.7-15.2V0h-6.7Z"/>
</svg>